<?xml version="1.0"?>
<svg xmlns="http://www.w3.org/2000/svg" xmlns:xlink="http://www.w3.org/1999/xlink" xmlns:svgjs="http://svgjs.com/svgjs" version="1.1" width="512" height="512" x="0" y="0" viewBox="0 0 220.847 220.847" style="enable-background:new 0 0 512 512" xml:space="preserve" class=""><g transform="matrix(-1,0,0,1,220.8459930419922,0)">
<g xmlns="http://www.w3.org/2000/svg">
	<path d="M199.948,188.028c11.536,0,20.898-13.811,20.898-30.842V63.66c0-17.026-9.367-30.841-20.898-30.841   c-11.548,0-20.899,13.815-20.899,30.841v25.8l-75.96-43.559C88.634,37.604,76.89,44.1,76.39,60.351l48.558,27.848   c9.579,5.489,15.079,13.595,15.079,22.232c0,8.645-5.5,16.744-15.079,22.243L76.39,160.511c0.5,16.239,12.244,22.743,26.699,14.447   l75.96-43.548v25.776C179.044,174.223,188.4,188.028,199.948,188.028z" fill="#cccccc" data-original="#cccccc" style="" class=""/>
	<path d="M112.525,95.091L26.75,45.901C11.982,37.427,0,44.369,0,61.404v98.062c0,17.025,11.982,23.969,26.75,15.492l85.781-49.177   C127.294,117.305,127.294,103.565,112.525,95.091z" fill="#cccccc" data-original="#cccccc" style="" class=""/>
</g>
<g xmlns="http://www.w3.org/2000/svg">
</g>
<g xmlns="http://www.w3.org/2000/svg">
</g>
<g xmlns="http://www.w3.org/2000/svg">
</g>
<g xmlns="http://www.w3.org/2000/svg">
</g>
<g xmlns="http://www.w3.org/2000/svg">
</g>
<g xmlns="http://www.w3.org/2000/svg">
</g>
<g xmlns="http://www.w3.org/2000/svg">
</g>
<g xmlns="http://www.w3.org/2000/svg">
</g>
<g xmlns="http://www.w3.org/2000/svg">
</g>
<g xmlns="http://www.w3.org/2000/svg">
</g>
<g xmlns="http://www.w3.org/2000/svg">
</g>
<g xmlns="http://www.w3.org/2000/svg">
</g>
<g xmlns="http://www.w3.org/2000/svg">
</g>
<g xmlns="http://www.w3.org/2000/svg">
</g>
<g xmlns="http://www.w3.org/2000/svg">
</g>
</g></svg>
