<?xml version="1.0"?>
<svg xmlns="http://www.w3.org/2000/svg" xmlns:xlink="http://www.w3.org/1999/xlink" xmlns:svgjs="http://svgjs.com/svgjs" version="1.1" width="512" height="512" x="0" y="0" viewBox="0 0 356 356" style="enable-background:new 0 0 512 512" xml:space="preserve" class=""><g>
<g xmlns="http://www.w3.org/2000/svg">
	<g>
		<g>
			<path d="M218.4,27.57l-109.2,66.4l-31.2,18H23.2c-12.8,0-23.2,10.4-23.2,23.2v85.2c0,12.8,10.4,23.2,23.2,23.2H78l30.4,17.6     c0.4,0.4,0.8,0.4,1.2,0.8l107.6,65.6c3.2,2.4,7.2,3.6,11.6,3.6c11.2,0,20.4-9.2,20.4-20.4v-132.8V45.57c0-3.6-0.8-7.2-2.8-10.4     C240.8,25.17,228,21.97,218.4,27.57z" fill="#cccccc" data-original="#000000" style="" class=""/>
			<path d="M338,133.97c-11.2-11.2-26.8-18-44-18c-5.6,0-10.4,4.8-10.4,10.4c0,5.6,4.8,10.4,10.4,10.4c11.6,0,22,4.8,29.2,12     c7.6,7.6,12,18,12,29.2c0,11.6-4.8,22-12,29.2c-7.6,7.6-18,12-29.2,12c-5.6,0-10.4,4.8-10.4,10.4c0,5.6,4.8,10.4,10.4,10.4     c17.2,0,32.8-6.8,44-18s18-26.8,18-44C356,160.77,349.2,145.17,338,133.97z" fill="#cccccc" data-original="#000000" style="" class=""/>
		</g>
	</g>
</g>
<g xmlns="http://www.w3.org/2000/svg">
</g>
<g xmlns="http://www.w3.org/2000/svg">
</g>
<g xmlns="http://www.w3.org/2000/svg">
</g>
<g xmlns="http://www.w3.org/2000/svg">
</g>
<g xmlns="http://www.w3.org/2000/svg">
</g>
<g xmlns="http://www.w3.org/2000/svg">
</g>
<g xmlns="http://www.w3.org/2000/svg">
</g>
<g xmlns="http://www.w3.org/2000/svg">
</g>
<g xmlns="http://www.w3.org/2000/svg">
</g>
<g xmlns="http://www.w3.org/2000/svg">
</g>
<g xmlns="http://www.w3.org/2000/svg">
</g>
<g xmlns="http://www.w3.org/2000/svg">
</g>
<g xmlns="http://www.w3.org/2000/svg">
</g>
<g xmlns="http://www.w3.org/2000/svg">
</g>
<g xmlns="http://www.w3.org/2000/svg">
</g>
</g></svg>
